# xmcd
#
# Track frame offsets:
#	150
#	9585
#	19924
#	29013
#	38717
#	50467
#	60559
#	69274
#	78759
#	90380
#	99336
#	110806
#	117641
#	128078
#
# Disc length: 1817 seconds
#
# Revision: 2
# Processed by: cddbd v1.5.2PL0 Copyright (c) Steve Scherf et al.
# Submitted via: audiograbber 1.83.01
#
DISCID=b007170e
DTITLE=Elvis Presley - Greatest hits - CD 1
DYEAR=2008
DGENRE=Blues
TTITLE0=Don't be cruel
TTITLE1=Hound dog
TTITLE2=Blue suede shoes
TTITLE3=Heartbreak hotel
TTITLE4=Jailhouse rock
TTITLE5=A big hunk o' love
TTITLE6=Hard headed woman
TTITLE7=I need your love tonight
TTITLE8=Too much
TTITLE9=All shook up
TTITLE10=Got a lot o' livin' to do
TTITLE11=Party
TTITLE12=Mean woman blues
TTITLE13=Dixieland rock
EXTD=Enregistrement 1972
EXTT0=
EXTT1=
EXTT2=
EXTT3=
EXTT4=
EXTT5=
EXTT6=
EXTT7=
EXTT8=
EXTT9=
EXTT10=
EXTT11=
EXTT12=
EXTT13=
PLAYORDER=
